<svg xmlns="http://www.w3.org/2000/svg" width="16" height="16" fill="none"><path fill="#9883EC" d="M6.93 7.472h2.377l-1.264-2.67zM2.752 2.885a1 1 0 0 0-.657 1.06l.8 6.714a1 1 0 0 0 .507.755l4.164 2.315a1 1 0 0 0 .974-.002l4.194-2.35a1 1 0 0 0 .504-.755l.8-6.709a1 1 0 0 0-.665-1.063L8.38 1.115a1 1 0 0 0-.663.003zm7.859 7.625L9.79 8.594H6.439l-.75 1.916H4.294l3.74-8.406 3.868 8.406z"/><path fill="#fff" fill-rule="evenodd" d="M16 7.498 13.83 9.81a.602.602 0 1 1-.878-.824l1.397-1.488-1.396-1.485a.601.601 0 1 1 .876-.824zm-16 0L2.17 9.81a.602.602 0 0 0 .878-.824L1.651 7.498l1.396-1.485a.601.601 0 1 0-.876-.824z" clip-rule="evenodd"/></svg>