<svg xmlns="http://www.w3.org/2000/svg" width="16" height="16" fill="none"><g clip-path="url(#a)"><path fill="#434F65" fill-rule="evenodd" d="M14.917 6.667H9.083A2.333 2.333 0 0 0 6.75 9v5.6H2.317a1.4 1.4 0 0 1-1.4-1.4V3.4a1.4 1.4 0 0 1 1.4-1.4h3.5l1.4 2.1h6.3a1.4 1.4 0 0 1 1.4 1.4z" clip-rule="evenodd" opacity=".8"/><rect width="8.167" height="8.167" x="7.917" y="7.833" fill="#252D3A" opacity=".1" rx="1.167"/><rect width="2.333" height="2.333" x="9.083" y="9" fill="#697DA5" rx="1.167"/><rect width="2.333" height="2.333" x="12.583" y="9" fill="#697DA5" rx="1.167"/><rect width="2.333" height="2.333" x="12.583" y="12.5" fill="#697DA5" rx="1.167"/><rect width="2.333" height="2.333" x="9.083" y="12.5" fill="#697DA5" rx="1.167"/></g><defs><clipPath id="a"><path fill="#fff" d="M0 0h16v16H0z"/></clipPath></defs></svg>