<svg xmlns="http://www.w3.org/2000/svg" width="16" height="16" fill="none"><path fill="#F07178" d="M12.45 14H3.463A1.47 1.47 0 0 1 2 12.527V3.473A1.47 1.47 0 0 1 3.463 2h8.995a1.47 1.47 0 0 1 1.463 1.474v9.061A1.482 1.482 0 0 1 12.45 14"/><path fill="#FC8289" fill-rule="evenodd" d="M12.45 14H3.463A1.47 1.47 0 0 1 2 12.527V3.473A1.47 1.47 0 0 1 3.463 2h8.995a1.47 1.47 0 0 1 1.463 1.474v9.061A1.482 1.482 0 0 1 12.45 14" clip-rule="evenodd"/><mask id="a" width="12" height="12" x="2" y="2" mask-type="alpha" maskUnits="userSpaceOnUse"><path fill="#fff" fill-rule="evenodd" d="M12.45 14H3.463A1.47 1.47 0 0 1 2 12.527V3.473A1.47 1.47 0 0 1 3.463 2h8.995a1.47 1.47 0 0 1 1.463 1.474v9.061A1.482 1.482 0 0 1 12.45 14" clip-rule="evenodd"/></mask><g mask="url(#a)"><path fill="#AC4142" d="m5.197 6.888.78.786-.78 2.179.841.838-.84 2.118L6.387 14h7.524V6.412l-3.197-3.22V3.8z"/></g><g fill="#fff"><path d="M5.197 6.888s5.51.556 5.51 1.483V6.147s0-.926-5.51-1.482v.864zm0 2.965s5.51.556 5.51 1.482V9.112s0-.927-5.51-1.483z" opacity=".6"/><path d="M10.715 3.191v2.224s0 .926-5.51 1.482V4.665c-.008 0 5.51-.547 5.51-1.474M5.197 7.63s5.51-.556 5.51-1.483v2.224s0 .926-5.51 1.482zm0 5.179v-2.224s5.51-.556 5.51-1.482v2.223c.008.01.008.927-5.51 1.483"/></g></svg>