<svg xmlns="http://www.w3.org/2000/svg" width="16" height="16" fill="none"><path fill="#212431" stroke="#555B77" d="M2.5 8a5.5 5.5 0 1 1 11 0 5.5 5.5 0 0 1-11 0Z"/><path fill="#FFCB6B" fill-rule="evenodd" d="M9.585 6.385a.397.397 0 0 0 .295-.125.408.408 0 0 0 .123-.292.397.397 0 0 0-.123-.297.41.41 0 0 0-.295-.12.387.387 0 0 0-.29.12.41.41 0 0 0-.118.297c0 .117.04.216.118.297a.39.39 0 0 0 .29.12" clip-rule="evenodd"/><path fill="#fff" fill-rule="evenodd" d="M9.188 6.75h.795v3.063h-.795zM7.73 8.781H6.65l-.001.001-.296 1.031H5.62l1.04-3.625v-.396h.99l1.182 4.02h-.816zm-.153-.698L7.18 6.5l-.398 1.583z" clip-rule="evenodd"/></svg>