<svg xmlns="http://www.w3.org/2000/svg" width="16" height="16" fill="none"><g clip-path="url(#a)"><path fill="#B2CCD6" d="M7.983 13.283c3.305 0 5.983-2.163 5.983-4.83 0-1.655-1.025-3.116-2.602-3.982-.642-.357-1.146-.677-1.565-.943-.79-.502-1.277-.811-1.816-.811-.547 0-1.163.391-1.977.908-.46.297-.927.58-1.405.846C3.026 5.337 2 6.798 2 8.452c0 2.668 2.678 4.831 5.983 4.831m-.698-8.915c.166-.379.25-.788.248-1.202 0-.072.1-.093.114-.014.329 1.388-.45 2.075-1.025 2.305-.062.024-.1-.06-.051-.104a2.88 2.88 0 0 0 .714-.985m1.025-.051a2.897 2.897 0 0 0-.39-1.15v-.008c-.034-.061.043-.131.093-.086.978 1.053.652 2.028.277 2.519-.041.051-.114-.002-.094-.063.123-.391.162-.804.114-1.212m.886-.28a2.854 2.854 0 0 0-.803-.9V3.13c-.057-.043-.013-.137.056-.109 1.294.542 1.383 1.585 1.226 2.197a.058.058 0 0 1-.065.045.055.055 0 0 1-.035-.022.059.059 0 0 1-.011-.042 2.932 2.932 0 0 0-.368-1.162m-2.536.28c-.308.272-.64.379-1.029.498-.058 0-.097-.039-.078-.09.874-.453 1.185-.822 1.495-1.385 0 0 .078-.059.095.042 0 .152-.175.663-.483.935m2.466 5.602a1.479 1.479 0 0 1-.468.775 1.08 1.08 0 0 1-.641.309 1.084 1.084 0 0 1-.661-.309 1.475 1.475 0 0 1-.462-.775.122.122 0 0 1 .032-.098.115.115 0 0 1 .096-.035h1.977a.113.113 0 0 1 .095.035.12.12 0 0 1 .032.098M6.404 8.834a.925.925 0 0 1-1.189-.122.985.985 0 0 1-.116-1.22.947.947 0 0 1 .423-.355.92.92 0 0 1 1.026.21.99.99 0 0 1 .204 1.054.963.963 0 0 1-.348.433m4.236.003a.925.925 0 0 1-1.187-.126.978.978 0 0 1-.273-.681.98.98 0 0 1 .159-.538.942.942 0 0 1 .423-.356.92.92 0 0 1 1.028.213.99.99 0 0 1 .2 1.055.961.961 0 0 1-.35.433"/></g><defs><clipPath id="a"><path fill="#fff" d="M2 2h12v12H2z"/></clipPath></defs></svg>