<svg xmlns="http://www.w3.org/2000/svg" width="16" height="16" fill="none"><path fill="#80CBC4" fill-rule="evenodd" d="M8 3.375h5.6c.77 0 1.4.619 1.4 1.375v1.274A2.354 2.354 0 0 0 14.667 6H13.6V4.75H2.4v6.875H6V13H2.4c-.77 0-1.4-.619-1.4-1.375l.007-8.25C1.007 2.619 1.63 2 2.4 2h4.2z" clip-rule="evenodd"/><rect width="8" height="8" x="7" y="7" fill="#252D3A" opacity=".1" rx="1"/><path fill="#3965BD" fill-rule="evenodd" d="M14 8.56 12.57 8l-2.495 2.373-1.503-1.117-.571.28L8 12.467l.569.28 1.501-1.117L12.572 14 14 13.443zm-1.59 1.38L11 10.996l1.412 1.063zm-3.704 1.677-.001-1.236.706.614z" clip-rule="evenodd"/></svg>