<svg xmlns="http://www.w3.org/2000/svg" width="16" height="16" fill="none"><path fill="#C792EA" fill-rule="evenodd" d="M4.148 6.452a.48.48 0 0 0-.107-.347c-.06-.079-.541-.587-1.074-1.126L2 4v4.896l.93-.942c1.174-1.19 1.218-1.243 1.218-1.502m6.07 2.85c-.018-.056-1.166-1.258-2.581-2.696-1.4-1.424-2.556-2.587-2.57-2.587-.019 0-.03 1.054-.03 2.342 0 2.61.004 2.636.244 3.148.126.272.208.366 1.16 1.337.563.576 1.066 1.073 1.122 1.104.13.067.415.067.563-.004.155-.075 2.044-2.004 2.093-2.14a.837.837 0 0 0 0-.504m2.245-1.706C13.319 6.726 14 6.003 14 5.97c0-.05-.03-.068-.1-.064-.14.007-5.444.625-5.493.643-.018.004.537.595 1.241 1.311l1.278 1.3zM4.49 11.965c.018 0 .03-1.085.03-2.41 0-1.326-.012-2.41-.03-2.41-.037 0-2.019 2.03-2.096 2.146-.067.105-.078.38-.019.5.045.095 2.074 2.174 2.115 2.174" clip-rule="evenodd"/></svg>