<svg xmlns="http://www.w3.org/2000/svg" width="16" height="16" fill="none"><path fill="#F78C6C" fill-rule="evenodd" d="M8.87 10.71H7.13V8L5.814 9.733 4.5 8.001v2.708H2.76V5.293H4.5l1.315 1.812L7.13 5.293h1.74zm2.611.437L9.316 8h1.315V5.292h1.74V8h1.316l-2.204 3.147zM13.995 3.5H2.005a.952.952 0 0 0-.705.308c-.2.206-.3.448-.3.727v6.93a1 1 0 0 0 .3.737c.2.199.434.298.705.298h11.99c.27 0 .506-.1.706-.298a.998.998 0 0 0 .299-.737v-6.93c0-.279-.1-.521-.3-.727a.952.952 0 0 0-.705-.308" clip-rule="evenodd"/></svg>