<svg xmlns="http://www.w3.org/2000/svg" width="16" height="16" fill="none"><path fill="#89DDFF" fill-rule="evenodd" d="m9.283 5.432 2.924 5.35.682-1.223-.787-1.433 1.564-.004.334-.61-.34-.626-2.228.008-.8-1.459zm-.224 4.277H3.21l.661 1.236 1.569-.004-.78 1.434.335.61.682.001 1.108-2.042 1.595-.003zM5.655 7.364l2.924-5.35L7.235 2l-.78 1.438-.786-1.43H5l-.342.624 1.12 2.035-.795 1.462z" clip-rule="evenodd"/><path fill="#82AAFF" fill-rule="evenodd" d="m10.338 7.636-2.923 5.35L8.758 13l.78-1.438.787 1.43h.667l.342-.624-1.12-2.035.795-1.462zM6.947 5.279h5.847l-.66-1.236-1.57.004.78-1.434-.334-.61L10.327 2 9.22 4.044l-1.596.003zm-.23 4.289L3.793 4.217 3.111 5.44l.788 1.433-1.565.004L2 7.488l.34.625 2.228-.007.8 1.458z" clip-rule="evenodd"/></svg>