<svg xmlns="http://www.w3.org/2000/svg" width="16" height="16" fill="none"><g fill-rule="evenodd" clip-rule="evenodd"><path fill="#F07178" d="M9.687 3.02 8.25 5.507h2.88l1.444-2.487zM8.25 5.507 6.807 8 5.37 10.493h2.88L9.687 8l1.443-2.493zM3.926 12.98h2.88l1.444-2.487H5.37z"/><path fill="#89DDFF" d="M2.49 5.507 3.926 3.02h2.88L5.37 5.507zm0 0L1.046 8l1.444 2.493h2.88L3.926 8 5.37 5.507zm1.436 7.473 1.444-2.487H2.49zM14.01 5.507 12.575 3.02 11.13 5.507zm0 0L15.455 8l-1.444 2.493h-2.88L12.574 8 11.13 5.507zm-2.88 4.986L9.693 12.98h2.88l1.438-2.487z"/></g></svg>