<svg xmlns="http://www.w3.org/2000/svg" width="16" height="16" fill="none"><g fill-rule="evenodd" clip-rule="evenodd"><path fill="#6B7394" d="M8 1 1.994 4.51v7L8 15l6-3.55.007-6.9zm5.477 10.15L8 14.39l-5.481-3.186v-6.39L8 1.61l5.483 3.24z"/><path fill="#89DDFF" d="M12.785 6.827 9.973 8.482l-.002 3.963 2.824-1.662z"/><path fill="#3965BD" d="m11.641 6.151 1.143.676-2.811 1.655-.002 3.963-1.307-.76.01-3.748z"/><path fill="#C3E88D" d="m11.256 5.175.001.733-3.052 1.841.004 4.05-.71.417-.002-4.788z"/><path fill="#C3E88D" d="m10.004 4.435 1.252.74-3.759 2.253.002 4.788-1.402-.816-.002-4.694z"/><path fill="#BB80B3" d="M9.613 3.303v.884l-4.008 2.35v5.049l-.701.408.013-5.856z"/><path fill="#FF9CAC" d="M8.08 2.392 3.265 5.197v5.839l1.648.958.005-5.856 4.7-2.835z"/></g></svg>