<svg xmlns="http://www.w3.org/2000/svg" width="16" height="16" fill="none"><path fill="#89DDFF" d="M7.349 4c-.354 0-.64.258-.64.576v1.11c0 .317.286.575.64.575H8.62c.354 0 .64-.258.64-.576V4.576c0-.318-.286-.576-.64-.576zm3.125 1.755c-.266 0-.481.197-.481.44v.846c0 .243.215.44.481.44h.955c.266 0 .481-.197.481-.44v-.846c0-.243-.215-.44-.48-.44zm-5.935 0c-.265 0-.48.197-.48.44v.846c0 .243.215.44.48.44h.956c.265 0 .48-.197.48-.44v-.846c0-.243-.215-.44-.48-.44zm2.81.97c-.354 0-.64.258-.64.577V8.41c0 .318.286.576.64.576H8.62c.354 0 .64-.258.64-.576V7.3c0-.318-.286-.576-.64-.576zm5.583.52c-.198 0-.358.147-.358.328v.63c0 .18.16.326.358.326h.71c.198 0 .358-.146.358-.327v-.63c0-.18-.16-.327-.358-.327zm-10.574 0c-.198 0-.358.147-.358.328v.63c0 .18.16.326.358.326h.71c.198 0 .358-.146.358-.327v-.63c0-.18-.16-.327-.358-.327zm8.116.663c-.266 0-.481.197-.481.44v.846c0 .243.215.44.481.44h.955c.266 0 .481-.197.481-.44v-.847c0-.242-.215-.44-.48-.44zm-5.935 0c-.265 0-.48.197-.48.44v.846c0 .243.215.44.48.44h.956c.265 0 .48-.197.48-.44v-.847c0-.242-.215-.44-.48-.44zm8.393 1.066c-.198 0-.358.147-.358.327v.63c0 .18.16.327.358.327h.71c.198 0 .358-.147.358-.327V9.3c0-.18-.16-.327-.358-.327zm-10.574 0c-.198 0-.358.147-.358.327v.63c0 .18.16.327.358.327h.71c.198 0 .358-.147.358-.327V9.3c0-.18-.16-.327-.358-.327zm4.99.453c-.353 0-.64.258-.64.576v1.11c0 .318.287.575.64.575H8.62c.354 0 .64-.257.64-.576v-1.109c0-.318-.286-.576-.64-.576zm3.126.634c-.266 0-.481.197-.481.44v.846c0 .243.215.44.481.44h.955c.266 0 .481-.197.481-.44v-.846c0-.243-.215-.44-.48-.44zm-5.935 0c-.265 0-.48.197-.48.44v.846c0 .243.215.44.48.44h.956c.265 0 .48-.197.48-.44v-.846c0-.243-.215-.44-.48-.44zm8.393.655c-.198 0-.358.147-.358.328v.629c0 .18.16.327.358.327h.71c.198 0 .358-.146.358-.327v-.63c0-.18-.16-.327-.358-.327zm-10.574 0c-.198 0-.358.147-.358.328v.629c0 .18.16.327.358.327h.71c.198 0 .358-.146.358-.327v-.63c0-.18-.16-.327-.358-.327z"/></svg>