<svg xmlns="http://www.w3.org/2000/svg" width="16" height="16" fill="none"><path fill="#82AAFF" d="M4.5 8.5v-6a.5.5 0 0 0-1 0v6z"/><path fill="#89DDFF" d="M5.5 9.5h-3a.5.5 0 0 0-.5.5v2a.5.5 0 0 0 .5.5h1v1a.5.5 0 0 0 1 0v-1h1A.5.5 0 0 0 6 12v-2a.5.5 0 0 0-.5-.5"/><path fill="#82AAFF" d="M8.5 3.5v-1a.5.5 0 0 0-1 0v1z"/><path fill="#89DDFF" d="M10 5a.5.5 0 0 0-.5-.5h-3A.5.5 0 0 0 6 5v2a.5.5 0 0 0 .5.5h1v6a.5.5 0 0 0 1 0v-6h1A.5.5 0 0 0 10 7z"/><path fill="#82AAFF" d="M12.5 8.5v-6a.5.5 0 0 0-1 0v6z"/><path fill="#89DDFF" d="M13.5 9.5h-3a.5.5 0 0 0-.5.5v2a.5.5 0 0 0 .5.5h1v1a.5.5 0 0 0 1 0v-1h1a.5.5 0 0 0 .5-.5v-2a.5.5 0 0 0-.5-.5"/></svg>