<svg xmlns="http://www.w3.org/2000/svg" width="16" height="16" fill="none"><path fill="#FFCB6B" d="m11.717 5.552-3.504 5.067a.302.302 0 0 1-.497-.001.299.299 0 0 1-.052-.184l.14-2.797-2.264-.48a.3.3 0 0 1-.236-.326.3.3 0 0 1 .052-.137L8.86 1.628a.301.301 0 0 1 .548.184l-.14 2.797 2.264.48a.301.301 0 0 1 .236.327.297.297 0 0 1-.051.136"/><path fill="#2ECC71" d="M8.044 14.87a.707.707 0 0 0 .502-.208l3.311-3.311a.71.71 0 0 0-1.003-1.004l-2.81 2.81-6.12-6.12A.71.71 0 0 0 .92 8.04l6.623 6.622a.706.706 0 0 0 .501.208"/><path fill="#AEE33E" d="M8.047 14.87a.707.707 0 0 1-.502-.208l-3.31-3.311a.71.71 0 0 1 1.003-1.004l2.81 2.81 6.12-6.12A.71.71 0 0 1 15.17 8.04l-6.62 6.622a.706.706 0 0 1-.502.208"/></svg>