<svg xmlns="http://www.w3.org/2000/svg" width="16" height="16" fill="none"><path fill="url(#a)" d="M13.957 2.919 7.85 13.797a.333.333 0 0 1-.578.002L1.044 2.92a.33.33 0 0 1 .347-.49l6.113 1.09a.333.333 0 0 0 .118 0l5.986-1.088a.33.33 0 0 1 .349.487"/><path fill="#FFCB6B" d="m10.417 1.003-4.52.882a.166.166 0 0 0-.133.153l-.278 4.677a.166.166 0 0 0 .203.17l1.258-.289a.166.166 0 0 1 .2.194l-.374 1.824a.166.166 0 0 0 .21.19l.778-.234a.166.166 0 0 1 .21.191l-.594 2.864c-.037.18.203.277.302.124l.067-.103 3.682-7.32a.165.165 0 0 0-.18-.237l-1.295.25a.166.166 0 0 1-.19-.209l.845-2.919a.166.166 0 0 0-.192-.208"/><defs><linearGradient id="a" x1="8.5" x2="1.5" y1="10.5" y2="2.5" gradientUnits="userSpaceOnUse"><stop stop-color="#8251A8"/><stop offset="1" stop-color="#8BD4CD"/></linearGradient></defs></svg>