<svg xmlns="http://www.w3.org/2000/svg" width="16" height="16" fill="none"><path fill="#F44336" fill-rule="evenodd" d="M8 3.375h5.6c.77 0 1.4.619 1.4 1.375v.518A1.99 1.99 0 0 0 14 5h-.4v-.25H2.4v6.875H5V13H2.4c-.77 0-1.4-.619-1.4-1.375l.007-8.25C1.007 2.619 1.63 2 2.4 2h4.2z" clip-rule="evenodd"/><rect width="8.556" height="8.556" x="6.222" y="6.222" fill="#F5F7F9" opacity=".2" rx="1"/><rect width="2.444" height="2.444" x="7.444" y="7.444" fill="#3965BD" rx="1"/><rect width="2.444" height="2.444" x="11.111" y="7.444" fill="#C3E88D" rx="1"/><rect width="2.444" height="2.444" x="11.111" y="11.111" fill="#FC8289" rx="1"/><rect width="2.444" height="2.444" x="7.444" y="11.111" fill="#FF9CAC" rx="1"/><rect width="3" height="3" x="7" y="7" fill="#00B6C2" rx="1.5"/><rect width="3" height="3" x="11" y="7" fill="#C3E88D" rx="1.5"/><rect width="3" height="3" x="11" y="11" fill="#FC8289" rx="1.5"/><rect width="3" height="3" x="7" y="11" fill="#FF9CAC" rx="1.5"/></svg>