<svg xmlns="http://www.w3.org/2000/svg" width="16" height="16" fill="none"><path stroke="#80CBC4" stroke-width="1.016" d="M5.1 5.274c-1.638-.13-3.015 1.81-2.343 3.308.655 1.626 3.119 2.067 4.29.765C8.182 8.234 8.62 6.522 10.01 5.643c1.413-.965 3.687-.054 3.963 1.66.268 1.643-1.5 3.24-3.101 2.757-1.184-.267-2.033-1.278-2.516-2.343-.594-1.016-1.37-2.102-2.584-2.377a2.954 2.954 0 0 0-.658-.068z"/><path stroke="#80CBC4" stroke-width=".431" d="M4.136 7.6h2.067"/><path stroke="#80CBC4" stroke-width=".551" d="M11.32 6.739V8.46m-.844-.861h1.722z"/></svg>