<svg xmlns="http://www.w3.org/2000/svg" width="16" height="16" fill="none"><path fill="#FF7042" fill-rule="evenodd" d="M8 3.375h5.6c.77 0 1.4.619 1.4 1.375V5h-1.4v-.25H2.4v6.875H6V13H2.4c-.77 0-1.4-.619-1.4-1.375l.007-8.25C1.007 2.619 1.63 2 2.4 2h4.2z" clip-rule="evenodd"/><path fill="#69A7D3" fill-rule="evenodd" d="M8.222 6.222a1 1 0 0 0-1 1v6.556a1 1 0 0 0 1 1h6.556a1 1 0 0 0 1-1V7.222a1 1 0 0 0-1-1zm4.916 2.722a.5.5 0 0 0-.832-.555l-2.444 3.667a.5.5 0 0 0 .832.555z" clip-rule="evenodd"/></svg>