<svg xmlns="http://www.w3.org/2000/svg" width="16" height="16" fill="none"><path fill="#375844" fill-rule="evenodd" d="M2.4 2h4.2L8 3.375h5.6c.77 0 1.4.619 1.4 1.375v.518A1.99 1.99 0 0 0 14 5H7a2 2 0 0 0-2 2v6H2.4c-.77 0-1.4-.619-1.4-1.375l.007-8.25C1.007 2.619 1.63 2 2.4 2" clip-rule="evenodd" opacity=".8"/><mask id="a" width="10" height="8" x="6" y="6" mask-type="alpha" maskUnits="userSpaceOnUse"><rect width="10" height="8" x="6" y="6" fill="#00B6C2" rx="1.6"/></mask><g mask="url(#a)"><path fill="#80CBC4" d="M6 6h10v8H6z"/><path fill="#343944" d="M13.85 10 8 15l8.55-.357.45-3.214z"/><path fill="#fff" d="M8.917 10.167a1.25 1.25 0 1 0 0-2.5 1.25 1.25 0 0 0 0 2.5"/></g></svg>