<svg xmlns="http://www.w3.org/2000/svg" width="16" height="16" fill="none"><path fill="#FFCB6B" d="M4.25 4.25h7.5v7.5h-7.5z"/><path fill="#F78C6C" d="m3 3 .313 2.5L4.25 8 8 4.25l-2.5-.937zm0 10 2.5-.312L8 11.75 4.25 8l-.937 2.5zm10 0-.312-2.5L11.75 8 8 11.75l2.5.938zm0-10-2.5.313L8 4.25 11.75 8l.938-2.5z"/><path fill="#FFCB08" d="m3 3 5 1.25L5.5 3z"/><path fill="#FFF200" d="M3 3v2.5L4.25 8zm0 10 1.25-5L3 10.5z"/><path fill="#F78C6C" d="M3 13h2.5L8 11.75z"/><path fill="#F7941E" d="m13 13-5-1.25L10.5 13z"/><path fill="#F15922" d="M13 13v-2.5L11.75 8zm0-10-1.25 5L13 5.5z"/><path fill="#FFCB08" d="M13 3h-2.5L8 4.25z"/></svg>