<svg xmlns="http://www.w3.org/2000/svg" width="16" height="16" fill="none"><g fill-rule="evenodd" clip-rule="evenodd"><path fill="#89DDFF" d="M5.5 3.5h-1a1 1 0 0 0-1 1v2a1 1 0 0 1-1 1H2v1h.5a1 1 0 0 1 1 1v2c0 .55.465.865 1 1h1v-1h-1V9a1 1 0 0 0-1-1 1 1 0 0 0 1-1V4.5h1zm7 1a1 1 0 0 0-1-1h-1v1h1V7a1 1 0 0 0 1 1 1 1 0 0 0-1 1v2.5h-1v1h1a1 1 0 0 0 1-1v-2a1 1 0 0 1 1-1h.5v-1h-.5a1 1 0 0 1-1-1z"/><path fill="#FFCB6B" d="M6 7.5a.5.5 0 1 1 0 1 .5.5 0 0 1 0-1m2 0a.5.5 0 1 1 0 1 .5.5 0 0 1 0-1m2.5.5a.5.5 0 1 0-1 0 .5.5 0 0 0 1 0"/></g></svg>