<svg xmlns="http://www.w3.org/2000/svg" width="16" height="16" fill="none"><path fill="#F78C6C" d="M8 12.32a4.32 4.32 0 0 1-4.197-3.313c.35.463.936.858 1.682 1.136.746.278 1.62.426 2.515.426.896 0 1.772-.15 2.52-.43.746-.278 1.33-.675 1.678-1.14A4.321 4.321 0 0 1 8 12.32M3.802 7A4.32 4.32 0 0 1 8 3.678a4.32 4.32 0 0 1 4.197 3.313c-.35-.463-.936-.858-1.682-1.136-.746-.278-1.62-.426-2.515-.426-.896 0-1.772.15-2.52.43-.746.278-1.33.675-1.678 1.14"/><path fill="#8E95B4" d="M4.46 2.423a.905.905 0 1 1 0 1.81.905.905 0 0 1 0-1.81"/><path fill="#6B7394" d="M3.852 11.391a.665.665 0 1 1 0 1.33.665.665 0 0 1 0-1.33m7.82.425a.849.849 0 1 1 0 1.697.849.849 0 0 1 0-1.697"/></svg>