<svg xmlns="http://www.w3.org/2000/svg" width="16" height="16" fill="none"><path fill="#A9EFA3" fill-rule="evenodd" d="M8 2a.599.599 0 0 0-.298.079l-4.96 2.82a.602.602 0 0 0-.298.52v5.66c0 .212.113.406.299.512l4.959 2.83a.6.6 0 0 0 .596 0l4.96-2.83a.587.587 0 0 0 .298-.511V5.42a.602.602 0 0 0-.299-.521l-4.959-2.82A.599.599 0 0 0 8 2" clip-rule="evenodd"/><mask id="a" width="12" height="13" x="2" y="2" mask-type="alpha" maskUnits="userSpaceOnUse"><path fill="#fff" fill-rule="evenodd" d="M8 2a.599.599 0 0 0-.298.079l-4.96 2.82a.602.602 0 0 0-.298.52v5.66c0 .212.113.406.299.512l4.959 2.83a.6.6 0 0 0 .596 0l4.96-2.83a.587.587 0 0 0 .298-.511V5.42a.602.602 0 0 0-.299-.521l-4.959-2.82A.599.599 0 0 0 8 2" clip-rule="evenodd"/></mask><g mask="url(#a)"><path fill="#2ECC71" fill-rule="evenodd" d="m7.492.938 6.481 11.226-5.57 3.216L1.922 4.154z" clip-rule="evenodd"/></g></svg>