<svg xmlns="http://www.w3.org/2000/svg" width="16" height="16" fill="none"><g fill-rule="evenodd" clip-rule="evenodd"><path fill="#6B7394" d="M8.085 13.922c1.31-4.675 1.272-4.697 2.219-8.03l.227.131c.124.072.225.013.225-.129v-1.59c.251-.878.448-1.556.506-1.76h1.025l1.704 1.575-1.119.965.846.914-5.576 7.923c-.027.045-.065.035-.057 0"/><path fill="#FC8289" d="m10.395 2.943-1.516.874a.164.164 0 0 1 .029.09v.815c0 .043-.017.08-.044.111l1.53.883c.105.06.19.01.19-.11V3.053c0-.12-.085-.17-.19-.11m-3.292 1.78v-.815c0-.034.011-.065.029-.091l-1.516-.874c-.104-.06-.19-.01-.19.11v2.553c0 .12.086.17.19.11l1.53-.883a.167.167 0 0 1-.043-.11m1.592-.878c.05 0 .091.028.091.062v.815c0 .034-.041.062-.091.062H7.317c-.05 0-.092-.027-.092-.062v-.815c0-.034.041-.062.092-.062z"/><path fill="#6B7394" d="M7.866 13.922h.056c-1.309-4.675-1.271-4.697-2.218-8.03l-.228.131c-.123.072-.224.013-.224-.129v-1.59l-.506-1.76H3.72L2.016 4.118l1.12.965-.847.914z"/><path fill="#8E95B4" d="M7.962 6.486a.413.413 0 1 0 .001-.827.413.413 0 0 0 0 .827M7.962 8.94a.413.413 0 1 0 .001-.826.413.413 0 0 0 0 .827m-.001 2.455a.413.413 0 1 0 .001-.826.413.413 0 0 0 0 .826"/></g></svg>