<svg xmlns="http://www.w3.org/2000/svg" width="16" height="16" fill="none"><rect width="12" height="12" x="2" y="2" fill="#343944" rx="1.5"/><path fill="url(#a)" d="M11.429 8.03c0-.104-.078-.165-.172-.135L4.743 9.961a.269.269 0 0 0-.172.244v2.111c0 .105.077.165.172.135l6.514-2.066a.27.27 0 0 0 .172-.243z"/><path fill="#FF9800" d="M4.571 7.974c0 .105.077.214.172.244l6.514 2.066c.095.03.172-.03.172-.134V8.038a.269.269 0 0 0-.172-.244L4.743 5.728c-.095-.03-.172.03-.172.135z"/><path fill="#FF9800" d="M11.429 3.696c0-.104-.078-.165-.172-.135L4.743 5.627a.269.269 0 0 0-.172.244v2.112c0 .104.077.164.172.134l6.514-2.066a.27.27 0 0 0 .172-.243z"/><defs><linearGradient id="a" x1="9.629" x2="9.745" y1="11.154" y2="9.181" gradientUnits="userSpaceOnUse"><stop stop-color="#FF9700"/><stop offset=".53" stop-color="#F48E00"/><stop offset="1" stop-color="#CE6E00"/></linearGradient></defs></svg>