<svg xmlns="http://www.w3.org/2000/svg" width="16" height="16" fill="none"><path fill="#C792EA" d="m8 4.683 3.333 1.846v-.74L8 3.949c-.496.273-2.891 1.598-3.333 1.84.41.228 4.716 2.607 7.333 4.053v.737l-4 2.21-4-2.211v-2.21l4 2.21.667-.368-5.334-2.946v3.684L8 13.525l4.666-2.578V9.474L6 5.788zm-4.667.369v1.475l6.665 3.684-2 1.106L4.667 9.47v.74L8 12.052l3.333-1.841L4 6.158V5.42l4-2.21 4 2.21v2.21L8 5.42l-.667.37 5.333 2.947V5.052L8 2.474c-.461.255-4.325 2.391-4.667 2.578M8 1 2 4.316v7.368L8 15l6-3.315V4.317zm5.331 10.315L8 14.263l-5.333-2.948v-6.63L8 1.737l5.333 2.948z"/></svg>