<?xml version="1.0" encoding="utf-8"?>
<svg viewBox="0 0 128 128" xmlns="http://www.w3.org/2000/svg">
  <linearGradient id="a" gradientUnits="userSpaceOnUse" x1="70.252" y1="1237.476" x2="170.659" y2="1151.089" gradientTransform="matrix(0.471074, -0.021454, 0.152863, -0.477235, -194.633948, 608.20828)">
    <stop offset="0" style="stop-color: rgb(0, 255, 247);"/>
    <stop offset="1" style="stop-color: rgb(21, 115, 255);"/>
  </linearGradient>
  <path fill="url(#a)" d="M 63.391 1.988 C 59.169 2.008 55.139 2.367 51.591 2.995 C 41.141 4.841 39.245 8.705 39.245 15.832 L 39.245 24.243 L 63.938 24.243 L 63.938 29.38 L 29.977 29.38 C 22.801 29.38 16.517 33.693 14.551 41.901 C 12.283 51.306 12.183 56.176 14.551 65.997 C 16.306 73.308 20.498 78.516 27.675 78.516 L 35.166 78.516 L 35.166 65.234 C 35.166 57.083 43.217 49.894 51.592 49.894 L 74.257 49.894 C 81.123 49.894 86.603 46.24 86.603 39.346 L 86.603 15.833 C 86.603 9.14 81.957 4.113 75.257 2.996 C 71.013 2.29 67.612 1.969 63.391 1.988 Z M 50.037 9.557 C 52.587 9.557 54.671 11.674 54.671 14.278 C 54.671 16.871 52.588 18.968 50.037 18.968 C 47.477 18.968 45.404 16.871 45.404 14.278 C 45.403 11.674 47.477 9.557 50.037 9.557 Z"/>
  <linearGradient id="b" gradientUnits="userSpaceOnUse" x1="209.474" y1="1098.811" x2="173.62" y2="1149.537" gradientTransform="matrix(.563 0 0 -.568 -29.215 707.817)">
    <stop offset="0" style="stop-color: rgb(255, 200, 0);"/>
    <stop offset="1" style="stop-color: rgb(255, 253, 115);"/>
  </linearGradient>
  <path fill="url(#b)" d="M 92.682 28.38 L 92.682 41.346 C 92.682 49.846 85.474 56.001 77.256 56.001 L 53.591 56.001 C 46.835 56.001 41.245 60.784 41.245 67.55 L 41.245 91.065 C 41.245 97.756 47.063 101.693 53.591 103.612 C 61.407 105.909 66.903 106.325 76.256 103.612 C 82.472 101.811 88.602 98.189 88.602 91.065 L 88.602 82.653 L 63.938 82.653 L 63.938 77.515 L 100.95 77.515 C 108.126 77.515 110.802 72.51 113.298 64.996 C 115.876 57.261 115.765 50.822 113.298 40.9 C 111.524 33.755 108.137 28.379 100.95 28.379 L 92.682 28.38 Z M 77.809 87.927 C 80.37 87.927 82.443 90.024 82.443 92.619 C 82.443 95.221 80.369 97.338 77.809 97.338 C 75.259 97.338 73.176 95.221 73.176 92.619 C 73.176 90.024 75.259 87.927 77.809 87.927 Z"/>
  <radialGradient id="c" cx="1825.678" cy="444.45" r="26.743" gradientTransform="matrix(0 -.24 -1.055 0 532.979 557.576)" gradientUnits="userSpaceOnUse">
    <stop offset="0" stop-color="#B8B8B8" stop-opacity=".498"/>
    <stop offset="1" stop-color="#7F7F7F" stop-opacity="0"/>
  </radialGradient>
  <path opacity=".444" fill="url(#c)" enable-background="new" d="M97.309 119.597c0 3.543-14.816 6.416-33.091 6.416-18.276 0-33.092-2.873-33.092-6.416 0-3.544 14.815-6.417 33.092-6.417 18.275 0 33.091 2.872 33.091 6.417z"/>
</svg>