<?xml version="1.0" encoding="utf-8"?>
<svg version="1.1" id="Layer_1" x="0px" y="0px" viewBox="0 0 128 128" xmlns="http://www.w3.org/2000/svg">
  <defs>
    <linearGradient gradientUnits="userSpaceOnUse" x1="64.026" y1="4.986" x2="64.026" y2="123.014" id="gradient-0" gradientTransform="matrix(0.985021, -0.172435, 0.168294, 0.961369, -8.330377, 10.847786)">
      <stop offset="0" style="stop-color: rgb(255, 0, 170);"/>
      <stop offset="0.478" style="stop-color: rgb(255, 77, 0);"/>
      <stop offset="1" style="stop-color: rgb(255, 142, 4);"/>
    </linearGradient>
  </defs>
  <style type="text/css">
	.st0{fill:#FF3E00;}
	.st1{fill:#FFFFFF;}
</style>
  <path class="st0" d="M 112.5 46.1 C 111.8 50.3 110.2 54.3 107.8 57.9 C 111.3 64.4 112.4 71.9 111.1 79.2 C 109.6 87.9 104.4 95.6 96.9 100.3 L 69.4 117.8 C 53.8 127.7 32.2 123.1 21.2 107.4 C 16 100.1 13.9 90.9 15.5 82 C 16.2 77.8 17.8 73.8 20.2 70.2 C 16.7 63.7 15.6 56.2 16.9 48.9 C 18.4 40.2 23.6 32.5 31.1 27.8 L 58.6 10.2 C 74.2 0.3 95.9 4.9 106.8 20.6 C 112.1 27.9 114.2 37.1 112.5 46.1 Z M 55.557 112.351 C 55.557 112.351 57.613 111.678 58.638 111.227 C 59.664 110.776 60.689 110.234 61.627 109.628 L 90.733 91.107 C 95.653 87.992 99.273 82.665 100.309 76.953 C 101.258 71.037 99.903 64.822 96.426 59.965 C 93.561 55.881 89.486 52.758 85.017 51.092 C 80.548 49.424 75.407 49.111 70.53 50.344 C 68.359 50.997 66.173 51.918 64.293 53.127 L 53.184 60.214 C 52.761 60.483 52.269 60.627 51.644 60.835 C 50.394 61.175 49.287 61.091 48.123 60.667 C 46.955 60.244 46.039 59.587 45.31 58.493 C 44.438 57.295 44.143 55.904 44.421 54.42 C 44.699 52.941 45.372 51.902 46.705 51.095 L 75.703 32.574 C 76.129 32.305 76.619 32.161 77.244 31.953 C 78.493 31.613 79.602 31.696 80.767 32.121 C 81.931 32.544 82.844 33.192 83.574 34.288 C 84.344 35.399 84.679 36.649 84.558 37.957 L 84.454 38.984 L 84.367 39.854 L 85.204 40.104 L 86.258 40.422 C 90.304 41.658 93.956 43.485 97.375 45.98 L 98.863 47.043 L 100.053 47.892 L 100.489 46.497 L 101.015 44.813 C 101.343 43.826 101.566 42.933 101.781 41.966 C 102.731 36.051 101.378 29.786 97.909 24.933 C 95.042 20.847 90.968 17.723 86.499 16.056 C 82.031 14.389 76.889 14.077 72.012 15.309 C 69.84 15.965 67.655 16.883 65.774 18.091 L 36.672 36.61 C 31.752 39.725 28.135 45.049 27.097 50.76 C 26.046 56.693 27.508 62.907 30.871 67.747 C 33.739 71.835 37.814 74.959 42.283 76.626 C 46.751 78.292 51.892 78.605 56.771 77.373 C 58.964 76.818 61.126 75.905 63.008 74.696 L 74.116 67.608 C 74.54 67.34 75.031 67.196 75.656 66.986 C 76.906 66.648 78.012 66.732 79.179 67.155 C 80.343 67.579 81.262 68.233 81.991 69.331 C 82.863 70.525 83.156 71.917 82.879 73.401 C 82.601 74.883 81.928 75.919 80.594 76.728 L 51.596 95.25 C 51.172 95.519 50.68 95.663 50.054 95.871 C 48.816 96.211 47.718 96.104 46.552 95.656 C 45.383 95.207 44.462 94.531 43.726 93.429 C 42.956 92.319 42.621 91.069 42.742 89.76 L 42.846 88.731 L 42.932 87.863 L 42.097 87.611 L 41.042 87.296 C 36.996 86.058 33.344 84.231 29.926 81.736 L 28.436 80.673 L 27.246 79.824 L 26.812 81.219 L 26.282 82.912 C 26.074 83.852 25.839 84.784 25.623 85.75 C 24.677 91.665 26.021 97.929 29.498 102.785 C 32.362 106.871 36.438 109.993 40.907 111.66 C 45.376 113.327 50.517 113.641 55.394 112.407 Z" style="fill: url(#gradient-0);"/>
</svg>